<svg xmlns="http://www.w3.org/2000/svg" version="1.0" width="4000.000000pt" height="2667.000000pt" viewBox="0 0 4000.000000 2667.000000" preserveAspectRatio="xMidYMid meet">

<g transform="translate(0.000000,2667.000000) scale(0.100000,-0.100000)" fill="#000000" stroke="none">
<path d="M9710 17584 c-516 -81 -869 -130 -1125 -159 -126 -14 -260 -34 -296 -45 -120 -36 -219 -120 -277 -235 -11 -22 -95 -236 -187 -475 -552 -1435 -1210 -3112 -1278 -3253 -55 -117 -63 -128 -84 -123 -50 13 -73 26 -73 43 0 10 129 910 287 2000 158 1091 285 1984 282 1986 -7 6 -1614 -123 -2001 -161 l-178 -18 -39 -38 c-75 -73 -4 148 -1031 -3191 -1172 -3810 -1262 -4107 -1276 -4209 -8 -54 -13 -101 -11 -103 3 -2 222 12 488 31 266 19 576 40 689 45 331 17 376 21 428 36 65 20 134 82 167 150 14 31 81 259 150 508 163 596 379 1372 636 2286 180 638 216 757 257 838 26 52 52 97 58 100 7 2 27 -2 46 -10 l35 -15 -5 -58 c-3 -33 -78 -912 -167 -1954 -89 -1042 -161 -1896 -160 -1897 1 -1 256 -3 567 -3 500 -1 570 0 604 15 48 20 100 68 125 117 10 21 93 246 183 500 189 533 450 1259 729 2033 416 1150 406 1125 463 1220 31 52 54 81 54 70 0 -11 -99 -908 -221 -1993 -121 -1086 -218 -1976 -215 -1979 3 -3 245 38 538 91 293 53 616 110 718 126 102 16 241 39 308 50 146 23 227 56 278 113 75 83 86 135 134 677 141 1580 417 4318 511 5062 22 177 89 667 150 1088 60 420 109 770 109 777 0 16 32 20 -370 -43z"/>
<path d="M31200 17566 c-386 -59 -831 -226 -1122 -420 -233 -155 -696 -600 -1027 -986 -1079 -1257 -1631 -2768 -1631 -4465 0 -687 63 -1060 240 -1412 338 -673 1036 -943 1867 -723 212 57 448 151 626 251 165 93 656 407 773 496 l31 23 472 -650 c260 -357 476 -650 481 -650 5 0 228 270 497 599 268 330 489 598 491 596 2 -1 -20 -156 -49 -344 -29 -187 -50 -344 -46 -347 6 -6 3446 521 3454 530 5 5 105 1207 101 1212 -2 1 -349 -49 -772 -112 -424 -62 -772 -111 -775 -108 -5 5 355 1943 362 1950 2 2 328 21 723 41 395 20 720 38 722 39 3 2 162 1116 162 1136 0 4 -326 8 -725 8 -533 0 -725 3 -725 11 0 11 356 1842 366 1886 l6 21 686 4 c685 4 687 4 744 27 31 12 80 42 107 67 56 50 62 67 132 329 48 182 208 879 203 884 -8 8 -2278 -187 -3084 -265 l-175 -17 -51 -52 c-90 -91 -103 -131 -188 -580 -110 -584 -217 -1166 -476 -2580 -127 -693 -296 -1611 -376 -2040 -80 -429 -159 -855 -176 -948 -18 -92 -35 -166 -38 -165 -4 2 -103 118 -220 258 -208 249 -285 338 -442 508 -80 87 -121 157 -133 228 -12 78 10 149 119 374 162 334 223 475 332 768 194 523 319 1073 379 1662 22 215 31 759 16 990 -27 413 -70 677 -146 906 -191 573 -566 929 -1100 1046 -116 26 -484 34 -615 14z m-18 -2257 c129 -27 233 -110 293 -233 42 -87 61 -157 80 -304 56 -424 7 -922 -140 -1442 -46 -162 -134 -440 -140 -440 -2 0 -58 47 -125 105 -67 58 -123 105 -126 105 -4 0 -1082 -835 -1156 -895 l-26 -22 200 -339 c110 -187 204 -347 209 -357 9 -15 -7 -26 -123 -82 -195 -95 -297 -126 -438 -132 -137 -6 -205 8 -325 67 -294 145 -406 411 -366 870 72 820 317 1553 744 2230 163 258 370 490 552 619 272 192 653 299 887 250z"/>
<path d="M26815 17410 c-269 -27 -679 -67 -910 -90 -471 -46 -1299 -137 -1330 -146 -60 -17 -156 -118 -206 -216 -22 -43 -117 -354 -654 -2143 -975 -3249 -1553 -5200 -1543 -5211 9 -8 1343 156 1587 196 133 22 171 43 237 132 54 73 90 181 224 663 88 320 160 554 182 599 29 58 107 136 158 160 42 19 67 20 423 24 l377 4 0 -23 c0 -13 -38 -420 -85 -903 -46 -484 -82 -882 -79 -885 2 -3 125 14 272 38 581 92 846 131 1059 156 312 35 383 66 442 187 41 86 48 151 66 618 69 1774 233 5298 295 6355 17 275 30 508 30 518 0 22 41 24 -545 -33z m-1051 -1341 c6 -6 -292 -3550 -299 -3557 -5 -6 -767 -71 -773 -67 -4 3 916 3634 923 3646 4 6 142 -14 149 -22z"/>
<path d="M17760 17379 c-254 -22 -558 -89 -836 -183 -934 -317 -1754 -961 -2086 -1637 -236 -481 -260 -921 -72 -1319 143 -302 319 -488 889 -941 353 -281 762 -628 888 -754 247 -247 339 -421 340 -640 1 -296 -212 -533 -545 -606 -171 -38 -399 -25 -568 31 -136 45 -382 196 -867 532 -73 50 -134 90 -136 87 -8 -8 -555 -1085 -622 -1224 -65 -132 -69 -144 -69 -210 0 -88 8 -102 127 -240 342 -398 716 -639 1109 -714 310 -59 779 -51 1133 20 424 85 827 272 1185 550 118 91 356 323 462 449 281 334 454 759 530 1300 17 127 17 573 0 700 -69 481 -231 868 -502 1193 -147 176 -341 335 -548 449 -429 238 -724 499 -828 734 -83 188 -70 399 37 581 73 124 276 296 439 372 252 118 471 61 568 -147 50 -110 55 -140 59 -435 l5 -279 26 7 c50 12 846 246 1112 326 146 44 275 87 287 94 58 38 105 137 148 309 75 303 43 609 -92 880 -263 529 -817 781 -1573 715z"/>
<path d="M11975 17295 c-548 -51 -1025 -100 -1072 -112 -32 -7 -81 -67 -115 -138 -24 -53 -52 -196 -198 -1021 -297 -1686 -516 -2953 -747 -4314 l-127 -745 1 -215 c0 -236 17 -365 69 -530 79 -254 245 -473 470 -623 409 -272 931 -327 1574 -167 837 209 1473 768 1809 1588 177 433 348 1196 781 3482 185 974 530 2824 527 2825 -1 1 -123 -6 -272 -16 -148 -9 -398 -25 -555 -33 -157 -9 -361 -20 -455 -25 -93 -6 -187 -15 -208 -22 -86 -28 -151 -115 -182 -240 -8 -35 -78 -397 -156 -804 -420 -2218 -877 -4510 -930 -4670 -60 -182 -215 -461 -312 -564 -121 -126 -301 -123 -419 8 -80 89 -115 225 -105 406 10 177 225 1245 922 4580 157 748 287 1370 290 1383 4 14 1 22 -7 21 -7 -1 -269 -25 -583 -54z"/>
<path d="M21577 17239 c-1050 -37 -1910 -69 -1912 -71 -6 -5 -69 -1317 -64 -1322 3 -3 240 -24 527 -48 392 -32 522 -46 522 -55 0 -13 -1135 -6146 -1145 -6191 -5 -21 -3 -23 27 -17 18 3 134 23 258 45 645 115 799 138 1110 164 247 22 336 52 422 144 99 105 119 182 208 774 167 1110 334 2161 566 3553 162 973 184 1091 220 1202 72 220 159 272 594 353 194 36 214 41 303 88 76 39 111 75 127 130 37 134 270 1267 270 1315 0 9 117 13 -2033 -64z"/>
</g>
</svg>
